<?xml version="1.0" encoding="utf-8"?>
<!-- Generator: Adobe Illustrator 22.1.0, SVG Export Plug-In . SVG Version: 6.00 Build 0)  -->
<svg version="1.1" id="Icon" xmlns="http://www.w3.org/2000/svg" xmlns:xlink="http://www.w3.org/1999/xlink" x="0px" y="0px"
	 viewBox="0 0 134 134" style="enable-background:new 0 0 134 134;" xml:space="preserve">
<g>
	<path d="M118,66.7c0,0-0.6-1.1-1.7-0.2c0.2-0.2,1.2-1.1,0.2-2c0,0,1.8-0.7,0.6-1.7c0,0,1.7-1.4,0.6-3c-0.3-0.5-0.7-0.9-1-1.3
		c1.8-0.8,1.5-2.2,1.5-2.2c1.3-1.7,0-3.2,0-3.2c1.2-0.9,0.1-1.9,0.1-1.9c0.4-1.1-1.3-1.1-1.3-1.1c1.6-3.1-1.3-3.5-1.3-3.5
		c-0.1-0.3-0.3-0.5-0.5-0.7c0-0.4-0.2-0.8-0.5-1.2c-1.4-2-2.9-3.5-4-2.1c0,0-0.3-1.9-1.9-2.8c0.3-0.7-0.4-1.3-0.4-1.3s0,0,0-0.1
		c0.3,0.2,0.7,0.3,1.2,0.1c0,0,3.3-2.5,0.1-3c0,0-0.5-0.9-1.4-1c-0.1-0.6-0.3-1.1-0.5-1.4c0-0.4-0.1-0.7-0.3-1.1
		c0.5-0.5,0.7-0.9,0.8-1.3c0.6-0.6,1-1.4-0.2-2.4c0,0,3.1-2.5,1-5.5c-1.9-2.7-3.9-4.7-5.5-3.5c-0.2-0.1-0.4-0.2-0.6-0.3
		c-0.5-1.6-2.4-5.4-8-3.2c-0.4,0-0.8,0.1-1.2,0.2c-0.3-0.7-1.5-2.6-3.5-2.2c-0.7-0.2-1.3-0.2-1.3-0.2c-1.2-0.7-2.3-0.5-3.1,0
		c0.2-0.7,0.2-1.5-0.4-2.4c-1.6-2.3-3.2-3.9-4.5-2.3c0,0-1-5.6-7-2.6c0,0-1.4-3.6-4.3-0.8c-0.6-0.2-1.1-0.2-1.1-0.2
		C68,5,67.4,4.9,67,5.1C66.5,5,66,5,65.4,5.3c0,0-0.6,0-1.1,0.2C61.4,2.8,60,6.3,60,6.3c-6-3-7,2.6-7,2.6c-1.2-1.6-2.9,0-4.5,2.3
		c-0.6,0.9-0.6,1.7-0.4,2.4c-0.8-0.5-1.9-0.7-3.1,0c0,0-0.6,0-1.3,0.2c-2-0.5-3.1,1.5-3.5,2.2c-0.4-0.1-0.8-0.2-1.2-0.2
		c-5.6-2.2-7.5,1.6-8,3.2c-0.2,0.1-0.4,0.2-0.6,0.3c-1.6-1.2-3.5,0.8-5.5,3.5c-2.1,3,1,5.5,1,5.5c-1.2,1-0.8,1.9-0.2,2.4
		c0.1,0.4,0.3,0.9,0.8,1.3c-0.2,0.4-0.3,0.8-0.3,1.1c-0.2,0.4-0.4,0.9-0.5,1.4c-0.9,0.1-1.4,1-1.4,1c-3.1,0.5,0.1,3,0.1,3
		c0.5,0.2,0.9,0.1,1.2-0.1c0,0,0,0,0,0.1c0,0-0.6,0.6-0.4,1.3c-1.5,0.8-1.9,2.8-1.9,2.8c-1.1-1.4-2.6,0-4,2.1
		c-0.3,0.4-0.4,0.8-0.5,1.2c-0.2,0.1-0.3,0.3-0.5,0.7c0,0-2.9,0.3-1.3,3.5c0,0-1.6,0-1.3,1.1c0,0-1.1,1,0.1,1.9c0,0-1.3,1.5,0,3.2
		c0,0-0.3,1.5,1.5,2.2c-0.3,0.4-0.7,0.8-1,1.3c-1.1,1.6,0.6,3,0.6,3c-1.2,1,0.6,1.7,0.6,1.7c-1,0.9,0,1.8,0.2,2
		c-1.1-0.9-1.7,0.2-1.7,0.2c-1.7,0.3,0.1,1.6,0.1,1.6c0.6,0.2,1-0.4,1-0.4c1.5,0.8,0.7,1.2,0.7,1.2c-1.2-0.3-0.5,0.7-0.5,0.7
		l0.7,0.1l0.8,0.5v0.3l-0.6-0.1l-0.1,0.5l0.7,0.4l-0.2,0.6c-0.9,1.2,2.1,1.8,2.1,1.8c0.5,3.7,3.9,2.4,4.7,2c0.6,0.3,1.3,0.5,2,0.6
		c1.6,0.2,3.2-0.2,4.5-1c0,0.5,0.1,0.9,0.8,0.9c0,0,0.1,0,0.2,0c0.1,0.2,0.3,0.3,0.3,0.4c-1.1-0.9-1.7,0.2-1.7,0.2
		c-1.7,0.3,0.1,1.6,0.1,1.6c0.6,0.2,1-0.4,1-0.4c1.5,0.8,0.7,1.2,0.7,1.2C32.6,79,33.2,80,33.2,80l0.7,0.1l0.8,0.5v0.3l-0.6-0.1
		L34,81.3l0.8,0.3l-0.2,0.6c-0.9,1.2,2,1.8,2,1.8c0.5,3.7,3.9,2.4,4.7,2c0.6,0.3,1.3,0.5,2,0.6c1.8,0.2,3.4-0.2,4.8-1.2
		c1,0.2,2.1-0.1,2.1-0.1c1.2,0.1,0.7-1.6,0.7-1.6c0.9,1.9,2.3,0.3,2.3,0.3c1.3-1.4-0.3-2.2-0.3-2.2c0.7-0.8-0.3-1.5-0.3-1.5
		c0.1,0,0.1,0,0.2-0.1c2.1,1.9,4.2,3.9,6.3,5.9c0.6,1.8,0.6,7,0.5,9.8l-2,22.8c0.5,6.6,0.2,8.7,0.2,8.7l-0.4,1.9l9-1.8l9,1.8
		l-0.3-1.9c0-0.1-0.3-2.2,0.2-8.9l-2-22.5c-0.1-2.9-0.1-8.1,0.5-9.9c2.2-2.1,4.4-4.2,6.6-6.2c0.3,0.1,0.7,0.3,1.2,0.4
		c0,0-1,0.7-0.3,1.5c0,0-1.5,0.8-0.3,2.2c0,0,1.3,1.7,2.3-0.3c0,0-0.5,1.7,0.7,1.6c0,0,1.1,0.3,2.1,0.1c1.3,1,3,1.4,4.8,1.2
		c0.7-0.1,1.4-0.3,2-0.6c0.8,0.4,4.3,1.7,4.7-2c0,0,2.9-0.6,2-1.8l-0.2-0.6l0.8-0.3l-0.1-0.5l-0.6,0.1v-0.3l0.8-0.5L101,80
		c0,0,0.7-1-0.5-0.7c0,0-0.9-0.4,0.7-1.2c0,0,0.4,0.6,1,0.4c0,0,1.8-1.3,0.1-1.6c0,0-0.5-1.1-1.7-0.2c0.1-0.1,0.2-0.2,0.3-0.4
		c0.1,0,0.2,0,0.2,0c0.6,0.1,0.8-0.4,0.8-0.9c1.3,0.8,2.9,1.2,4.5,1c0.7-0.1,1.4-0.3,2-0.6c0.8,0.4,4.3,1.7,4.7-2
		c0,0,2.9-0.6,2.1-1.8l-0.2-0.6l0.7-0.4l-0.1-0.5l-0.6,0.1v-0.3l0.8-0.5l0.7-0.1c0,0,0.7-1-0.5-0.7c0,0-0.9-0.4,0.7-1.2
		c0,0,0.4,0.6,1,0.4C117.9,68.3,119.7,66.9,118,66.7z M92.5,68.7L92.5,68.7c-3.2,0.9-18.8,16-19.5,16.6l-0.2,0.2
		c-1,2.5-0.7,10.5-0.7,10.6l2,22.5c-0.5,6.7-0.2,8.9-0.2,9.2l-7.4-1.5l-7.4,1.5l0,0c0-0.2,0.3-2.4-0.2-8.9l2-22.8
		c0-0.1,0.3-8-0.7-10.5L60,85.4c-0.7-0.6-16.3-15.7-19.5-16.6l0,0c0-0.2-0.8-6.7-2-12.4c0.2-0.5,0.5-1,1-1.4
		c0.7,4.3,1.6,8.8,2.3,11.4l0.8,2.5l0.5-2.6c0.6-3,2.1-9.7,3.3-15.9c0.6,0,1.5-0.3,1.6-0.8c0.1-0.3,0.4-0.5,0.8-0.7
		c-0.2,1.8-0.4,3.7-0.6,5.5c0,0.1-0.1,0.1-0.1,0.2c0.1,4.5-5,13.2-0.4,16.8c1.2,0.9,2.6,1.4,3.9,1.5l0.4,0.4l0,0
		c0.4,1.1,1,2.5,1.5,3l0.6,0.7l0.5-0.9l0,0c0.1-0.1,3.5-2.3,5.1-10.8v-0.2l-0.8-2.3l-0.1-0.2c-2.1-3.1-3.6-5.2-4.7-6.6
		c0.1-0.3,0.2-0.5,0.3-0.8c1,0.9,2.2,2.2,3.5,3.8l1.4,1.8L59,58.5c-0.5-4.2-0.2-9.5,0-13.4c0.1-1.5,0.1-2.5,0.1-3.3
		c0.6-0.2,1.1-0.4,1.7-0.6c0.2,1.9,0.4,3.7,0.5,5.6c0,0.3-0.1,0.6-0.1,0.9c-0.1,0.8,0,1.5,0.1,2.2c-1.3,5.6-0.1,11.9,0.9,17.7
		c-0.3,1.6-0.2,3.2,0.2,4.7c-0.5,1.5-0.3,3.1,0.6,4.9c0.8,1.7,1.9,3.4,4,3.1c1.9-0.2,3.3-1.3,3.9-3c0.7-1.9,0.5-3.3-0.5-4.4
		c-0.9-3.4-2.2-8.5-2.6-9.8l-0.1-0.3l0.9-4.6c0-0.2,0.1-0.5,0.1-0.7l0.8-16.2c0-0.3,0.1-0.6,0.3-0.8c0.9,0.2,1.9,0.5,2.8,0.7
		c-0.4,1-0.4,2.2-0.6,3.3c-0.5,3.4-0.6,6.7,0.2,10.1c-0.8,2.3-1.9,4.9-1.4,7.2c0.1,0.7,2.5,0.1,2.4-0.6c0.5-0.5,0.7-0.9,1-1.7
		c0.8-1.9,1.6-3.5,2.7-5.1c0.7-1,1.4-2,1.9-3.1c0.8-0.9,1.4-1.3,1.8-1.3l0,0c0.1,0.2,0.3,2-7,12.6l-0.1,0.2c-0.1,0.2-0.4,1-0.7,2.1
		l-0.1,0.2v0.2c0.1,0.5,0.2,1,0.3,1.4c-1.1,3.2,2.5,7,4.5,9.2c0.1,0.1,0.2,0.1,0.3,0.1l0,0l0.5,1l0.6-0.7c0.1-0.1,0.3-0.3,0.4-0.6
		c0.3-0.1,0.6-0.2,0.7-0.4c0.6-1.3,1.5-2.2,2.4-3.1c1.8-1.1,3.4-2.6,4.3-4.5c0.8-1.6,0.6-2.8-0.2-4.4c-0.8-1.8-1.5-3.3-1.9-5.2
		c-0.1-0.7-0.1-1.4-0.2-2.2c0.2-3.5,0-7.1,0.1-10.7c0.3,0.2,0.6,0.5,0.9,0.8c1.4,7.4,3.4,17.5,4,20.3l0.5,2.7l0.8-2.6
		c0.7-2.5,1.5-6.7,2.2-10.8c0.3,0.3,0.7,0.6,1,0.9C93.2,62.2,92.5,68.6,92.5,68.7z"/>
	<path d="M68.3,94.2c-0.4-0.5-0.7-0.7-0.9-0.9c-0.3-0.2-0.5-0.5-0.8-0.8c-0.2-0.3-0.4-0.6-0.6-0.9c-0.1,0.1-0.1,0.2-0.2,0.3V92
		c-0.2,1.7-0.5,2.7-0.6,3.4c-0.1,0.3-0.1,0.6-0.2,0.8c-0.3,1.8,0.1,4.2,0.9,5.4c0.3,0.4,0.6,0.6,0.9,0.7c0.7,0.1,1.6-0.9,2-1.6l0,0
		c0.3-0.4,1.6-2.3,0.9-4.2C69.5,95.7,69.1,95.2,68.3,94.2z"/>
</g>
</svg>
